<?xml version="1.0" encoding="utf-8"?>
<!-- Generator: Adobe Illustrator 16.0.0, SVG Export Plug-In . SVG Version: 6.00 Build 0)  -->
<!DOCTYPE svg PUBLIC "-//W3C//DTD SVG 1.1//EN" "http://www.w3.org/Graphics/SVG/1.1/DTD/svg11.dtd">
<svg version="1.1" xmlns="http://www.w3.org/2000/svg" xmlns:xlink="http://www.w3.org/1999/xlink" x="0px" y="0px" width="500px"
	 height="500px" viewBox="0 0 500 500" enable-background="new 0 0 500 500" xml:space="preserve">
<g id="Layer_1" display="none">
	
		<image display="inline" overflow="visible" opacity="0.5" width="1668" height="2224" xlink:href="../../IMG_0315.JPG"  transform="matrix(0.2961 0 0 0.2961 0 -67.416)">
	</image>
</g>
<g id="Logo_vector">
	<path fill="#FF0000" stroke="#FF0000" stroke-miterlimit="10" d="M172.09,329.246l-12.813-3.494l-4.078-44.842
		c0,0-1.746-11.647-5.822-11.647c-4.077,0-12.231,2.91-18.637,14.56c-6.406,11.648-26.789,49.502-26.789,55.327
		c0,5.822-20.383,55.909-15.724,76.875s6.406,55.908,18.636,62.896c12.23,6.989,14.56,2.911,17.472,0
		c2.912-2.913,21.549-41.349,24.46-48.919c2.91-7.573,13.395-5.826,11.066,5.241c-2.331,11.062-25.625,50.665-36.691,54.741
		c-11.066,4.077-15.725,7.572-30.867-3.494c-15.141-11.062-13.395-64.645-13.395-65.808s3.495-30.284,3.495-30.284
		s8.736-41.35,11.065-44.261c2.329-2.914,18.575-54.745,32-70.469c13.426-15.725,23.908-23.296,31.478-22.713
		c7.573,0.582,12.232,4.659,15.145,12.812C175.001,273.921,178.495,316.435,172.09,329.246z"/>
	<path fill="#FF0000" stroke="#FF0000" stroke-miterlimit="10" d="M182.429,353.366l8.872-60.56c0,0,4.248-22.644,5.615-24.297
		c1.368-1.653,2.287-4.787,5.363-4.471c3.079,0.316,4.759,1.985,4.803,5.638c0.042,3.652-7.847,42.486-7.847,42.486l-5.632,40.142
		c0,0-2.171,5.994,14.276,5.954c16.45-0.036,15.411,1.891,18.418-1.747s4.86-6.555,6.46-18.59
		c1.599-12.034,5.675-42.888,5.675-42.888l5.965-46.269l9.103-3.606c0,0-6.572,65.52-6.387,70.682
		c0.184,5.164-3.347,41.753-5.549,47.446c-2.201,5.692-6.379,38.689-6.379,38.689s-9.962,49.09-11.515,51.976
		c-1.554,2.892-1.399,14.148-11.721,14.521l5.589-37.397c0,0,8.55-44.686,6.855-49.703c0,0,0.624-15.904-5.202-16.265
		c-5.824-0.361-23.972,7.456-24.487,8.423c-0.519,0.965-1.885-3.783-7.286,32.375c-5.399,36.16-10.346,61.056-11.701,66.03
		c-1.355,4.984-3.003,8.794-3.003,8.794l-12.674-0.623c0,0,8.984-52.953,9.733-57.899c0.751-4.947,1.793-32.468,5.604-46.841
		c0,0,1.469-3.799-15.168,3.876c0,0-5.537,2.66-7.648-3.539c-2.111-6.196,0.057-5.797,1.455-7.146c0,0,5.091-4.14,16.306-7.948
		C170.322,360.609,182.109,355.549,182.429,353.366z"/>
	<path fill="#FF0000" stroke="#FF0000" stroke-miterlimit="10" d="M263.488,452.919c0,0,7.616-79.798,9.817-84.393
		c2.199-4.594,3.677-31.987,7.001-43.271c0,0,8.271-61.788,7.075-65.186c-1.198-3.396,2.507-6.246-7.398-4.289
		c0,0-4.255-3.408-8.128-2.604c0,0-5.852-1.646,0.779-5.78c6.628-4.134,16.316-3.795,18.887-4.446c2.572-0.648,5.612-1,19.137-1.803
		c13.524-0.804,0.905,9.597,0.905,9.597l-5.896,2.604c0,0-0.685-7.249-6.607-4.936c-5.925,2.313-3.828,5.918-3.828,5.918
		s1.001,24.62,0.419,27.746c-0.583,3.128-2.874,45.02-6.067,57.166c0,0-6.187,40.948-7.721,43.284
		c-1.535,2.338-4.574,60.097-4.574,60.097l-1.647,8.93c0,0,6.278-3.223,6.296,1.603c0.015,4.824-2.39,7.245-7.01,9.432
		c-4.619,2.19-17.296,7.333-24.499,5.381l-0.819-8.696C249.609,459.272,257.068,454.621,263.488,452.919z"/>
	<path fill="#FF0000" stroke="#FF0000" stroke-miterlimit="10" d="M310.934,436.037c0.683-1.631,2.394-11.444,2.275-27.855
		c-0.116-16.409,7.363-59.768,7.363-59.768s2.539-30.367,8.86-70.487c6.324-40.121,8.663-33.583,8.604-34.506
		c-0.064-0.922,0.997-4.15,20.268-3.682c19.268,0.468,33.478,15.49,39.447,29.025c5.97,13.537-8.416,30.453-12.182,35.247
		c-3.762,4.792-16.312,21.489-29.922,26.849c-13.612,5.359-15.87,7.183-15.87,7.183c-13.521,11.238-12.435,33.107-16.216,50.605
		c-3.78,17.502-5.017,63.825-5.017,63.825c-1.527,0.185-11.566,9.454-11.566,9.454S310.254,437.669,310.934,436.037z
		 M346.649,251.06c0,0-5.274,10.241-8.462,40.351c-3.189,30.108,0.325,38.727,0.325,38.727c19.076,1.42,13.051,0.287,32.437-16.304
		c19.383-16.593,11.6-42.617,11.6-42.617C368.493,239.44,346.649,251.06,346.649,251.06"/>
	<path fill="#FF0000" stroke="#FF0000" stroke-miterlimit="10" d="M194.802,82.899l-12.812-3.494l-4.077-44.844
		c0,0-1.747-11.646-5.824-11.646s-12.23,2.911-18.637,14.559c-6.406,11.648-26.789,49.503-26.789,55.327
		c0,5.823-20.383,55.909-15.724,76.874c4.659,20.966,6.406,55.909,18.636,62.898c12.23,6.989,14.56,2.913,17.472,0
		s21.548-41.349,24.459-48.92c2.912-7.571,13.396-5.823,11.066,5.241s-25.625,50.666-36.689,54.743
		c-11.066,4.077-15.726,7.571-30.868-3.494c-15.142-11.065-13.395-64.645-13.395-65.809s3.494-30.284,3.494-30.284
		s8.737-41.348,11.066-44.261c2.33-2.912,18.576-54.745,32-70.469c13.426-15.724,23.907-23.295,31.479-22.713
		c7.572,0.583,12.231,4.659,15.143,12.813C197.714,27.573,201.209,70.087,194.802,82.899z"/>
	<path fill="#FF0000" stroke="#FF0000" stroke-miterlimit="10" d="M219.261,115.222l13.977-57.073c0,0,6.115-21.257,7.571-22.713
		c1.457-1.456,2.62-4.369,5.533-3.786c2.913,0.582,4.368,2.33,4.077,5.824c-0.291,3.495-11.356,39.894-11.356,39.894l-9.026,37.854
		c0,0-2.621,5.533,13.104,6.989c15.724,1.456,14.56,3.204,17.762,0c3.204-3.204,5.242-5.824,7.863-17.181
		c2.621-11.356,9.316-40.476,9.316-40.476l9.901-43.679l9.028-2.621c0,0-12.23,62.025-12.522,66.974
		c-0.291,4.95-6.989,39.602-9.609,44.844c-2.621,5.242-9.608,36.399-9.608,36.399s-13.977,46.008-15.725,48.629
		c-1.747,2.621-2.621,13.395-12.521,12.812l8.736-35.234c0,0,12.229-41.931,11.064-46.881c0,0,2.038-15.142-3.494-16.016
		c-5.532-0.874-23.587,4.951-24.168,5.824c-0.582,0.874-1.457-3.785-9.901,30.285c-8.444,34.069-15.434,57.411-17.18,62.047
		c-1.747,4.635-3.668,8.129-3.668,8.129l-12.057-1.747c0,0,13.396-49.793,14.56-54.453c1.165-4.659,4.659-30.867,9.609-44.262
		c0,0,1.747-3.493-14.851,2.33c0,0-5.532,2.039-6.989-4.076c-1.456-6.115,0.582-5.534,2.039-6.697c0,0,5.241-3.495,16.307-6.115
		C207.031,121.046,218.756,117.279,219.261,115.222z"/>
	<path fill="#FF0000" stroke="#FF0000" stroke-miterlimit="10" d="M282.609,212.99c0,0,14.916-78.73,17.537-83.099
		c2.621-4.368,6.584-31.503,10.953-42.423c0,0,13.993-60.74,13.119-64.235c-0.873-3.494,3.066-5.984-6.98-4.964
		c0,0-3.928-3.793-7.857-3.355c0,0-5.678-2.187,1.312-5.682c6.989-3.494,16.599-2.249,19.22-2.654c2.62-0.405,5.681-0.469,19.221,0
		c13.54,0.468-0.001,9.64-0.001,9.64l-6.115,2.038c0,0,0-7.279-6.115-5.532c-6.115,1.748-4.368,5.532-4.368,5.532
		s-1.31,24.606-2.183,27.664c-0.874,3.058-7.084,44.552-11.404,56.346c0,0-9.999,40.184-11.746,42.368s-10.19,59.403-10.19,59.403
		l-2.476,8.736c0,0,6.552-2.621,6.114,2.184c-0.437,4.805-2.751,6.989-7.557,8.735c-4.804,1.748-17.592,5.679-24.592,3.058v-8.736
		C268.5,218.013,276.058,214.081,282.609,212.99z"/>
	<path fill="#FF0000" stroke="#FF0000" stroke-miterlimit="10" d="M323.749,191.225c0.824-1.456,3.544-10.482,5.291-25.916
		c1.746-15.434,13.685-55.326,13.685-55.326s5.823-28.245,16.307-65.227c10.482-36.982,11.94-30.575,11.988-31.449
		c0.047-0.874,1.407-3.785,19.462-1.164c18.053,2.62,29.7,18.343,33.777,31.738c4.079,13.396-11.355,27.663-15.435,31.74
		c-4.077,4.077-17.762,18.345-31.156,21.839c-13.395,3.495-15.724,4.951-15.724,4.951c-13.978,9.028-15.434,29.702-20.966,45.717
		c-5.533,16.016-11.938,59.403-11.938,59.403c-1.455,0-11.94,7.571-11.94,7.571S322.926,192.681,323.749,191.225z M378.251,21.46
		c0,0-6.116,9.027-12.521,36.956c-6.404,27.93-4.077,36.424-4.077,36.424c17.762,3.494,12.23,1.748,32.322-11.647
		c20.092-13.396,15.725-38.729,15.725-38.729C400.089,13.015,378.251,21.46,378.251,21.46"/>
</g>
</svg>
